<svg width="32" height="22" viewBox="0 0 32 22" fill="none" xmlns="http://www.w3.org/2000/svg">
<path fill-rule="evenodd" clip-rule="evenodd" d="M1.22949 14.3089C1.87158 14.3089 2.39209 14.8294 2.39209 15.4715V17.2601C2.39209 18.5937 3.47316 19.6748 4.80672 19.6748H26.2701C27.6036 19.6748 28.6847 18.5937 28.6847 17.2601V15.4715C28.6847 14.8294 29.2052 14.3089 29.8473 14.3089C30.4894 14.3089 31.0099 14.8294 31.0099 15.4715V17.2601C31.0099 19.8779 28.8878 22 26.2701 22H4.80672C2.18899 22 0.0668945 19.8779 0.0668945 17.2601V15.4715C0.0668945 14.8294 0.587408 14.3089 1.22949 14.3089Z" fill="#407765"/>
<path d="M16.7007 1.1626C16.7007 0.520513 16.1802 0 15.5381 0C14.896 0 14.3755 0.520513 14.3755 1.1626V10.6251L11.6373 7.54469C11.2108 7.06479 10.4759 7.02156 9.99601 7.44814C9.51611 7.87472 9.47288 8.60956 9.89946 9.08946L14.6691 14.4553C14.8897 14.7035 15.206 14.8455 15.538 14.8455C15.8701 14.8455 16.1863 14.7035 16.407 14.4553L21.1766 9.08946C21.6032 8.60956 21.56 7.87472 21.0801 7.44814C20.6002 7.02156 19.8653 7.06479 19.4387 7.54469L16.7007 10.625V1.1626Z" fill="#407765"/>
</svg>
