<svg width="29" height="29" viewBox="0 0 29 29" fill="none" xmlns="http://www.w3.org/2000/svg">
<path fill-rule="evenodd" clip-rule="evenodd" d="M13.7195 0.255883C14.1839 -0.0852944 14.8161 -0.0852944 15.2805 0.255883L28.4623 9.94049C28.8003 10.1889 29 10.5833 29 11.0028V27.6818C29 28.4098 28.4098 29 27.6818 29H1.31818C0.59017 29 0 28.4098 0 27.6818V11.0028C0 10.5833 0.19966 10.1889 0.537717 9.94049L13.7195 0.255883ZM2.63636 11.67V26.3636H5.27273V13.1818C5.27273 12.4538 5.8629 11.8636 6.59091 11.8636H22.4091C23.1371 11.8636 23.7273 12.4538 23.7273 13.1818V26.3636H26.3636V11.67L14.5 2.95388L2.63636 11.67ZM21.0909 24.6853V16.1784L16.4508 20.4318L21.0909 24.6853ZM14.5 18.6436L19.0203 14.5H9.97969L14.5 18.6436ZM7.90909 16.1784L12.5492 20.4318L7.90909 24.6853V16.1784ZM9.97969 26.3636L14.5 22.22L19.0203 26.3636H9.97969Z" fill="#50606E"/>
</svg>
