<svg width="31" height="31" viewBox="0 0 31 31" fill="none" xmlns="http://www.w3.org/2000/svg">
<path fill-rule="evenodd" clip-rule="evenodd" d="M15.5 29.0625C22.9904 29.0625 29.0625 22.9904 29.0625 15.5C29.0625 8.00964 22.9904 1.9375 15.5 1.9375C8.00964 1.9375 1.9375 8.00964 1.9375 15.5C1.9375 22.9904 8.00964 29.0625 15.5 29.0625ZM15.5 31C24.0604 31 31 24.0604 31 15.5C31 6.93959 24.0604 0 15.5 0C6.93959 0 0 6.93959 0 15.5C0 24.0604 6.93959 31 15.5 31Z" fill="#026A44"/>
<path fill-rule="evenodd" clip-rule="evenodd" d="M9.46969 21.3701C9.75343 21.6538 10.2135 21.6538 10.4972 21.3701L11.3536 20.5136C11.6374 20.2299 11.6374 19.7699 11.3536 19.4861C11.0699 19.2024 10.6098 19.2024 10.3261 19.4861L9.46969 20.3425C9.18595 20.6263 9.18595 21.0863 9.46969 21.3701ZM12.0389 18.8008C12.3227 19.0846 12.7827 19.0846 13.0665 18.8008L14.7793 17.088C15.063 16.8042 15.063 16.3442 14.7793 16.0605C14.4955 15.7767 14.0355 15.7767 13.7518 16.0605L12.0389 17.7733C11.7552 18.057 11.7552 18.5171 12.0389 18.8008ZM15.4646 15.3751C15.7483 15.6589 16.2084 15.6589 16.4921 15.3751L18.2049 13.6623C18.4887 13.3786 18.4887 12.9185 18.2049 12.6348C17.9212 12.3511 17.4612 12.3511 17.1774 12.6348L15.4646 14.3476C15.1809 14.6314 15.1809 15.0914 15.4646 15.3751ZM18.8903 11.9495C19.174 12.2332 19.634 12.2332 19.9178 11.9495L20.7742 11.0931C21.0579 10.8093 21.0579 10.3493 20.7742 10.0655C20.4905 9.78181 20.0304 9.78181 19.7467 10.0655L18.8903 10.922C18.6065 11.2057 18.6065 11.6657 18.8903 11.9495Z" fill="#026A44"/>
<path fill-rule="evenodd" clip-rule="evenodd" d="M7.49125 22.6196C7.48972 23.0208 7.81377 23.3474 8.21504 23.3489L11.7473 23.3624C12.1485 23.3639 12.4751 23.0398 12.4766 22.6386C12.4781 22.2373 12.1541 21.9108 11.7528 21.9092L8.94713 21.8986L8.95781 19.0929C8.95934 18.6916 8.63529 18.3651 8.23402 18.3636C7.83275 18.362 7.50622 18.6861 7.5047 19.0873L7.49125 22.6196Z" fill="#026A44"/>
<path fill-rule="evenodd" clip-rule="evenodd" d="M22.6199 7.49117C23.0211 7.48965 23.3477 7.8137 23.3492 8.21497L23.3627 11.7472C23.3642 12.1485 23.0401 12.475 22.6389 12.4765C22.2376 12.4781 21.9111 12.154 21.9095 11.7527L21.8989 8.94706L19.0932 8.95774C18.6919 8.95927 18.3654 8.63521 18.3639 8.23395C18.3623 7.83268 18.6864 7.50615 19.0876 7.50462L22.6199 7.49117Z" fill="#026A44"/>
<path fill-rule="evenodd" clip-rule="evenodd" d="M21.384 21.3701C21.1003 21.6538 20.6402 21.6538 20.3565 21.3701L19.4311 20.4446C19.1473 20.1609 19.1473 19.7008 19.4311 19.4171C19.7148 19.1334 20.1748 19.1334 20.4586 19.4171L21.384 20.3425C21.6678 20.6263 21.6678 21.0863 21.384 21.3701ZM18.6077 18.5937C18.324 18.8775 17.8639 18.8775 17.5802 18.5937L16.6547 17.6683C16.371 17.3845 16.371 16.9245 16.6547 16.6408C16.9385 16.357 17.3985 16.357 17.6823 16.6408L18.6077 17.5662C18.8914 17.85 18.8914 18.31 18.6077 18.5937ZM14.3946 14.3807C14.1109 14.6644 13.6509 14.6644 13.3671 14.3807L12.5452 13.5588C12.2615 13.275 12.2615 12.815 12.5452 12.5313C12.829 12.2475 13.289 12.2475 13.5727 12.5313L14.3946 13.3532C14.6784 13.6369 14.6784 14.0969 14.3946 14.3807ZM11.9289 11.915C11.6452 12.1987 11.1852 12.1987 10.9014 11.915L10.0795 11.0931C9.79578 10.8093 9.79578 10.3493 10.0795 10.0655C10.3633 9.7818 10.8233 9.7818 11.107 10.0655L11.9289 10.8874C12.2127 11.1712 12.2127 11.6312 11.9289 11.915Z" fill="#026A44"/>
<path fill-rule="evenodd" clip-rule="evenodd" d="M23.3626 22.6196C23.3641 23.0208 23.0401 23.3474 22.6388 23.3489L19.1066 23.3624C18.7053 23.3639 18.3788 23.0398 18.3772 22.6386C18.3757 22.2373 18.6998 21.9108 19.101 21.9092L21.9067 21.8986L21.896 19.0929C21.8945 18.6916 22.2185 18.3651 22.6198 18.3636C23.0211 18.362 23.3476 18.6861 23.3491 19.0873L23.3626 22.6196Z" fill="#026A44"/>
<path fill-rule="evenodd" clip-rule="evenodd" d="M8.23395 7.49117C7.83269 7.48965 7.50616 7.8137 7.50463 8.21497L7.49118 11.7472C7.48965 12.1485 7.81371 12.475 8.21497 12.4765C8.61624 12.4781 8.94277 12.154 8.9443 11.7527L8.95498 8.94706L11.7607 8.95774C12.1619 8.95927 12.4885 8.63521 12.49 8.23395C12.4915 7.83268 12.1675 7.50615 11.7662 7.50462L8.23395 7.49117Z" fill="#026A44"/>
</svg>
