<svg width="32" height="32" viewBox="0 0 32 32" fill="none" xmlns="http://www.w3.org/2000/svg">
<path fill-rule="evenodd" clip-rule="evenodd" d="M3.74984 13.5H7.24835C7.60277 12.3678 8.32225 11.1814 9.31434 10.1893C10.8203 8.68333 13.0678 7.5 16 7.5C18.9322 7.5 21.1797 8.68333 22.6857 10.1893C23.6778 11.1814 24.3972 12.3678 24.7516 13.5H28.2502C27.0924 7.79495 22.0472 3.5 16 3.5C9.95277 3.5 4.90756 7.79495 3.74984 13.5ZM28.4902 16.5H25.9529L28.2439 18.5312C28.3793 17.8721 28.463 17.1936 28.4902 16.5ZM27.1802 21.5974L21.4708 16.5355L25.4086 24.23C26.105 23.4347 26.7019 22.5506 27.1802 21.5974ZM23.0944 26.2933L18.0826 16.5H17.5V28.411C19.5612 28.1648 21.4671 27.4173 23.0944 26.2933ZM14.5 28.411V16.5H13.9174L8.90556 26.2933C10.5329 27.4173 12.4388 28.1648 14.5 28.411ZM6.59142 24.23L10.5292 16.5355L4.81984 21.5974C5.29812 22.5506 5.89504 23.4347 6.59142 24.23ZM3.75611 18.5312L6.04707 16.5H3.5098C3.53702 17.1936 3.62065 17.8721 3.75611 18.5312ZM10.5148 13.5H21.4852C21.2633 13.1173 20.9615 12.7078 20.5643 12.3107C19.5703 11.3167 18.0678 10.5 16 10.5C13.9322 10.5 12.4297 11.3167 11.4357 12.3107C11.0385 12.7078 10.7367 13.1173 10.5148 13.5ZM0.538886 14.8944C1.10667 6.84922 7.81121 0.5 16 0.5C24.1888 0.5 30.8933 6.84922 31.4611 14.8944C31.4869 15.2598 31.5 15.6285 31.5 16C31.5 18.0342 31.1073 19.9804 30.3923 21.7643C29.4348 24.153 27.9013 26.246 25.9649 27.8727C23.2712 30.1357 19.793 31.5 16 31.5C12.207 31.5 8.72882 30.1357 6.03514 27.8727C4.09874 26.246 2.56518 24.153 1.60769 21.7643C0.892653 19.9804 0.5 18.0342 0.5 16C0.5 15.6285 0.513097 15.2598 0.538886 14.8944Z" fill="#50606E"/>
</svg>
