<svg width="30" height="30" viewBox="0 0 30 30" fill="none" xmlns="http://www.w3.org/2000/svg">
<path fill-rule="evenodd" clip-rule="evenodd" d="M15 3.33333C8.55668 3.33333 3.33333 8.55668 3.33333 15C3.33333 21.4433 8.55668 26.6667 15 26.6667C21.4433 26.6667 26.6667 21.4433 26.6667 15C26.6667 8.55668 21.4433 3.33333 15 3.33333ZM0 15C0 6.71573 6.71573 0 15 0C23.2843 0 30 6.71573 30 15C30 23.2843 23.2843 30 15 30C6.71573 30 0 23.2843 0 15Z" fill="#50606E"/>
<path fill-rule="evenodd" clip-rule="evenodd" d="M21.0267 19.1233C21.0267 20.1189 20.7856 20.99 20.3033 21.7367C19.8367 22.4678 19.2067 23.0433 18.4133 23.4633C17.7453 23.817 17.0222 24.0603 16.2439 24.1934V25C16.2439 25.9898 15.59 26.4455 15.0767 26.45C14.4671 26.45 13.727 25.9184 13.727 25V24.2261C12.5932 24.0936 11.5653 23.7772 10.6433 23.2767C9.57 22.6856 8.83111 21.8922 8.42667 20.8967C8.36444 20.7567 8.33333 20.6011 8.33333 20.43C8.33333 20.1967 8.41111 19.9944 8.56667 19.8233C8.72222 19.6522 8.94 19.5356 9.22 19.4733C9.26667 19.4578 9.33667 19.45 9.43 19.45C9.64778 19.45 9.85778 19.52 10.06 19.66C10.2778 19.8 10.4411 19.9944 10.55 20.2433C10.7833 20.7567 11.25 21.1844 11.95 21.5267C12.4836 21.7875 13.0759 21.9716 13.727 22.0788V15.6733C12.3702 15.3846 11.2723 14.8546 10.4333 14.0833C9.48444 13.1811 9.01 12.0689 9.01 10.7467C9.01 9.40889 9.50778 8.32 10.5033 7.48C11.3754 6.75552 12.45 6.29139 13.727 6.08762V5.50952C13.727 4.51967 14.3809 4.06401 14.8942 4.05952C15.5038 4.05952 16.2439 4.59109 16.2439 5.50952V6.0581C17.1993 6.18889 18.008 6.48397 18.67 6.94333C19.4478 7.45667 20.1089 8.17222 20.6533 9.09C20.8244 9.38556 20.91 9.65778 20.91 9.90667C20.91 10.2644 20.7622 10.5367 20.4667 10.7233C20.3111 10.8322 20.1244 10.8867 19.9067 10.8867C19.7044 10.8867 19.51 10.8322 19.3233 10.7233C19.1367 10.6144 18.9889 10.4589 18.88 10.2567C18.5533 9.65 18.1411 9.16778 17.6433 8.81C17.2603 8.51344 16.7938 8.30522 16.2439 8.18534V14.0366C17.6528 14.2919 18.7804 14.8286 19.6267 15.6467C20.56 16.5333 21.0267 17.6922 21.0267 19.1233ZM11.9733 12.6133C11.5378 12.0844 11.32 11.47 11.32 10.77C11.32 10.0078 11.5922 9.39333 12.1367 8.92667C12.5631 8.57134 13.0932 8.32423 13.727 8.18534V13.5957C12.9209 13.3538 12.3363 13.0264 11.9733 12.6133ZM18.6933 19.1933C18.6933 19.9867 18.4211 20.64 17.8767 21.1533C17.4313 21.5605 16.887 21.848 16.2439 22.0158V16.1512C16.9895 16.4021 17.5648 16.7628 17.97 17.2333C18.4522 17.7933 18.6933 18.4467 18.6933 19.1933Z" fill="#50606E"/>
</svg>
