<svg width="19" height="19" viewBox="0 0 19 19" fill="none" xmlns="http://www.w3.org/2000/svg">
<path d="M16.5701 17.778C15.3296 19.0185 10.6833 16.3835 6.19226 11.8924C1.70123 7.40139 -0.933854 2.75508 0.306635 1.51459L1.3049 0.516324C1.85623 -0.0350046 2.61975 -0.165362 3.01028 0.225162L5.1316 2.34648C5.52212 2.73701 5.52212 3.37017 5.1316 3.7607L4.68189 4.21041C4.31721 4.57508 4.289 5.1578 4.62459 5.5494C5.70517 6.81035 7.00262 8.21058 8.43836 9.64632C9.87411 11.0821 11.2743 12.3795 12.5353 13.4601C12.9269 13.7957 13.5096 13.7675 13.8743 13.4028L14.324 12.9531C14.7145 12.5626 15.3477 12.5626 15.7382 12.9531L17.8595 15.0744C18.25 15.4649 18.1197 16.2284 17.5684 16.7798L16.5701 17.778Z" fill="white"/>
<path fill-rule="evenodd" clip-rule="evenodd" d="M13.814 4.27064C12.4704 2.92695 10.5326 2.53563 8.83656 3.09843C8.51676 3.20455 8.1725 3.03167 8.06763 2.71228C7.96276 2.39289 8.137 2.04795 8.4568 1.94183C10.5732 1.23952 12.9965 1.72614 14.6775 3.40714C16.3585 5.08815 16.8452 7.51144 16.1429 9.62788C16.0367 9.94769 15.6918 10.1219 15.3724 10.0171C15.053 9.91219 14.8801 9.56793 14.9863 9.24813C15.549 7.55211 15.1577 5.61432 13.814 4.27064ZM12.0871 5.99762C11.1864 5.09697 9.93033 4.7667 8.76435 5.00826C8.43453 5.07659 8.11283 4.86483 8.04579 4.53528C7.97876 4.20573 8.19178 3.88319 8.52159 3.81486C10.072 3.49367 11.7487 3.93226 12.9506 5.13413C14.1524 6.336 14.591 8.01269 14.2698 9.56309C14.2015 9.8929 13.879 10.1059 13.5494 10.0389C13.2199 9.97186 13.0081 9.65015 13.0764 9.32034C13.318 8.15436 12.9877 6.89828 12.0871 5.99762ZM10.3601 7.72461C9.88493 7.24946 9.26263 7.01282 8.63787 7.01405C8.30131 7.01471 8.02901 6.74241 8.02967 6.40586C8.03033 6.0693 8.3037 5.79593 8.64026 5.79527C9.57505 5.79344 10.5111 6.14869 11.2236 6.86112C11.936 7.57354 12.2912 8.50964 12.2894 9.44443C12.2887 9.78098 12.0154 10.0543 11.6788 10.055C11.3423 10.0557 11.07 9.78337 11.0706 9.44682C11.0719 8.82205 10.8352 8.19976 10.3601 7.72461Z" fill="white"/>
</svg>
