<svg width="29" height="25" viewBox="0 0 29 25" fill="none" xmlns="http://www.w3.org/2000/svg">
<path fill-rule="evenodd" clip-rule="evenodd" d="M23.2306 0.375372C23.5703 0.459609 23.9785 0.586312 24.317 0.798967C24.8502 1.13396 25.1087 1.77271 24.9583 2.38392C24.7832 3.09527 24.4021 3.77335 23.9655 4.38503C23.8712 4.51715 23.7718 4.64972 23.6677 4.78259C24.052 5.04703 24.4287 5.36408 24.7671 5.73834C25.393 6.43055 25.8801 7.31655 26.0355 8.3733C26.5779 8.30645 27.0571 8.26535 27.4675 8.24533C27.8965 8.22439 28.3129 8.39309 28.6062 8.7066C28.8995 9.02011 29.0399 9.44668 28.9902 9.87297C28.9381 10.319 28.7291 11.0611 28.437 11.8834C28.1298 12.7482 27.689 13.8173 27.1125 14.9504C25.975 17.1862 24.2362 19.8156 21.8302 21.5428C19.0251 23.5565 15.0039 24.8787 11.2267 24.9922C7.48659 25.1045 3.54098 24.0224 1.49561 20.6663C-0.625778 17.1855 -0.2935 12.9794 1.2643 9.48406C2.81952 5.9945 5.71837 2.918 9.19546 1.6718C12.4015 0.522771 15.7514 0.0808276 18.4351 0.0103471C19.7799 -0.0249697 20.9827 0.0322811 21.942 0.149124C22.4205 0.207409 22.8572 0.282775 23.2306 0.375372ZM23.1567 8.91149C23.1126 8.41098 22.8935 8.0223 22.5988 7.69638C22.2701 7.33289 21.8425 7.05247 21.4488 6.86365C19.1764 8.27527 16.2203 10.4295 13.5458 12.5573C13.1946 12.8367 12.8509 13.1136 12.5165 13.3864C14.2254 12.6897 15.7281 12.0198 17.0719 11.412C17.3237 11.2981 17.5716 11.1855 17.8159 11.0745C19.8239 10.1625 21.5837 9.36321 23.1567 8.91149ZM20.3872 4.08904C20.7574 3.70761 21.0753 3.35037 21.3369 3.01992C20.5762 2.94131 19.6118 2.90095 18.5119 2.92984C16.0563 2.99433 13.0272 3.40114 10.182 4.42086C7.60797 5.3434 5.23705 7.74826 3.93387 10.6723C2.63327 13.5905 2.51852 16.7303 3.9915 19.1472C5.2409 21.1972 7.86126 22.1715 11.1389 22.073C14.3797 21.9757 17.8281 20.8199 20.1253 19.1709C21.9835 17.8369 23.4621 15.6814 24.5075 13.6268C24.916 12.8238 25.2472 12.0583 25.5008 11.3987C25.2678 11.4359 25.023 11.478 24.7668 11.5255C23.2998 11.7971 21.5356 12.5963 18.8792 13.7999C18.6834 13.8886 18.4827 13.9795 18.2769 14.0726C15.357 15.3933 11.6193 17.0386 6.64142 18.618C6.0313 18.8116 5.36612 18.5857 5.00025 18.0608C4.63439 17.5359 4.65301 16.8341 5.04621 16.3293C6.10205 14.9737 8.80919 12.5928 11.7256 10.2725C14.6212 7.96878 17.9067 5.58091 20.3872 4.08904Z" fill="#50606E"/>
</svg>
